{"accessors" : [{"bufferView" : 0, "byteOffset" : 0, "componentType" : 5123, "count" : 2592, "type" : "SCALAR", "max" : [2225], "min" : [0]}, {"bufferView" : 1, "byteOffset" : 0, "componentType" : 5126, "count" : 2226, "type" : "VEC3", "max" : [0.7686470746994019, 0.7700061202049255, 2.271573543548584], "min" : [-0.7700057625770569, -0.7700054049491882, -0.013713115826249123], "name" : "POSITION"}, {"bufferView" : 1, "byteOffset" : 12, "componentType" : 5126, "count" : 2226, "type" : "VEC2", "max" : [0.9923503398895264, 0.991208016872406], "min" : [0.004817747510969639, 0.00461152195930481], "name" : "TEXCOORD_0"}, {"bufferView" : 1, "byteOffset" : 20, "componentType" : 5126, "count" : 2226, "type" : "VEC3", "max" : [0.9973518252372742, 0.9982037544250488, 1.0000042915344238], "min" : [-0.9982030391693115, -0.9982022643089294, -1.0000044107437134], "name" : "NORMAL"}, {"bufferView" : 1, "byteOffset" : 32, "componentType" : 5126, "count" : 2226, "type" : "VEC4", "max" : [0.999646782875061, 0.9996311664581299, 0.8664119839668274, 0], "min" : [-0.9996681809425354, -0.9996461868286133, -0.866766095161438, 0], "name" : "TANGENT"}], "asset" : {"generator" : "Aspose.3D 23.6.0", "version" : "2.0"}, "buffers" : [{"uri" : "data:application/octet-stream;base64,", "byteLength" : 129608}], "bufferViews" : [{"buffer" : 0, "byteOffset" : 0, "byteLength" : 5184, "target" : 34963}, {"buffer" : 0, "byteOffset" : 5188, "byteLength" : 124416, "byteStride" : 48, "target" : 34962}], "images" : [{"uri" : "data:image/jpeg;base64,"}, {"uri" : "data:image/png;base64,"}, {"uri" : "data:image/jpeg;base64,"}], "materials" : [{"name" : "Plastic Cup", "pbrMetallicRoughness" : {"baseColorFactor" : [1, 1, 1, 1], "baseColorTexture" : {"index" : 1, "texCoord" : 0}, "metallicFactor" : 0, "roughnessFactor" : 0.8999999761581421, "metallicRoughnessTexture" : {"index" : 2, "texCoord" : 0}}, "normalTexture" : {"index" : 0, "texCoord" : 0, "scale" : 1}, "emissiveFactor" : [0, 0, 0], "alphaMode" : "OPAQUE", "doubleSided" : false}], "meshes" : [{"primitives" : [{"attributes" : {"POSITION" : 1, "TEXCOORD_0" : 2, "NORMAL" : 3, "TANGENT" : 4}, "indices" : 0, "material" : 0, "mode" : 4}]}], "nodes" : [{"matrix" : [100, 0, 0, 0, 0, -1.6292067812173627E-05, -100, 0, 0, 100, -1.6292067812173627E-05, 0, 0, 0, 0, 1], "mesh" : 0, "name" : "Plastic Cup"}], "samplers" : [{"magFilter" : 9729, "minFilter" : 9729, "wrapS" : 10497, "wrapT" : 10497}, {"magFilter" : 9729, "minFilter" : 9729, "wrapS" : 10497, "wrapT" : 10497}, {"magFilter" : 9729, "minFilter" : 9729, "wrapS" : 10497, "wrapT" : 10497}], "scene" : 0, "scenes" : [{"nodes" : [0]}], "textures" : [{"sampler" : 0, "source" : 0, "name" : ""}, {"sampler" : 1, "source" : 1, "name" : ""}, {"sampler" : 2, "source" : 2, "name" : ""}]}